<?xml version="1.0" standalone="no"?><svg xmlns:xlink="http://www.w3.org/1999/xlink" xmlns="http://www.w3.org/2000/svg" viewBox="0 0 1000 777.7801307979754" preserveAspectRatio="xMaxYMax slice"><g transform="scale(1.9251983435593452)"><rect x="0" y="0" width="519.4285714285714" height="404" fill="#000000"/><rect x="0" y="0" width="57.71" height="57.71" fill="#000000"/><g transform="translate(0,0) scale(2.8855) rotate(0)"><rect width="2" height="20" fill="#373737"/><rect x="4" width="2" height="20" fill="#373737"/><rect x="8" width="2" height="20" fill="#373737"/><rect x="12" width="2" height="20" fill="#373737"/><rect x="16" width="2" height="20" fill="#373737"/></g><rect x="57.71" y="0" width="57.71" height="57.71" fill="#a7a7a7"/><g transform="translate(57.71,0) scale(2.8855) rotate(0)"><rect width="2" height="20" fill="#040404"/><rect x="4" width="2" height="20" fill="#040404"/><rect x="8" width="2" height="20" fill="#040404"/><rect x="12" width="2" height="20" fill="#040404"/><rect x="16" width="2" height="20" fill="#040404"/></g><rect x="115.43" y="0" width="57.71" height="57.71" fill="#d4d4d4"/><g transform="translate(115.43,0) scale(2.8855) rotate(0)"><rect width="2" height="20" fill="#000000"/><rect x="4" width="2" height="20" fill="#000000"/><rect x="8" width="2" height="20" fill="#000000"/><rect x="12" width="2" height="20" fill="#000000"/><rect x="16" width="2" height="20" fill="#000000"/></g><rect x="173.14" y="0" width="57.71" height="57.71" fill="#6b6b6b"/><g transform="translate(173.14,0) scale(2.8855) rotate(0)"><rect width="2" height="20" fill="#676767"/><rect x="4" width="2" height="20" fill="#676767"/><rect x="8" width="2" height="20" fill="#676767"/><rect x="12" width="2" height="20" fill="#676767"/><rect x="16" width="2" height="20" fill="#676767"/></g><rect x="230.86" y="0" width="57.71" height="57.71" fill="#000000"/><g transform="translate(230.86,0) scale(2.8855) rotate(0)"><rect width="2" height="20" fill="#d8d8d8"/><rect x="4" width="2" height="20" fill="#d8d8d8"/><rect x="8" width="2" height="20" fill="#d8d8d8"/><rect x="12" width="2" height="20" fill="#d8d8d8"/><rect x="16" width="2" height="20" fill="#d8d8d8"/></g><rect x="288.57" y="0" width="57.71" height="57.71" fill="#a5a5a5"/><g transform="translate(288.57,0) scale(2.8855) rotate(0)"><rect width="2" height="20" fill="#e2e2e2"/><rect x="4" width="2" height="20" fill="#e2e2e2"/><rect x="8" width="2" height="20" fill="#e2e2e2"/><rect x="12" width="2" height="20" fill="#e2e2e2"/><rect x="16" width="2" height="20" fill="#e2e2e2"/></g><rect x="346.29" y="0" width="57.71" height="57.71" fill="#303030"/><g transform="translate(346.29,0) scale(2.8855) rotate(0)"><rect width="2" height="20" fill="#000000"/><rect x="4" width="2" height="20" fill="#000000"/><rect x="8" width="2" height="20" fill="#000000"/><rect x="12" width="2" height="20" fill="#000000"/><rect x="16" width="2" height="20" fill="#000000"/></g><rect x="404" y="0" width="57.71" height="57.71" fill="#000000"/><g transform="translate(404,0) scale(2.8855) rotate(0)"><rect width="2" height="20" fill="#838383"/><rect x="4" width="2" height="20" fill="#838383"/><rect x="8" width="2" height="20" fill="#838383"/><rect x="12" width="2" height="20" fill="#838383"/><rect x="16" width="2" height="20" fill="#838383"/></g><rect x="461.71" y="0" width="57.71" height="57.71" fill="#000000"/><g transform="translate(461.71,0) scale(2.8855) rotate(0)"><rect width="2" height="20" fill="#000000"/><rect x="4" width="2" height="20" fill="#000000"/><rect x="8" width="2" height="20" fill="#000000"/><rect x="12" width="2" height="20" fill="#000000"/><rect x="16" width="2" height="20" fill="#000000"/></g><rect x="0" y="57.71" width="57.71" height="57.71" fill="#303030"/><g transform="translate(0,57.71) scale(2.8855) rotate(0)"><rect width="2" height="20" fill="#e9e9e9"/><rect x="4" width="2" height="20" fill="#e9e9e9"/><rect x="8" width="2" height="20" fill="#e9e9e9"/><rect x="12" width="2" height="20" fill="#e9e9e9"/><rect x="16" width="2" height="20" fill="#e9e9e9"/></g><rect x="57.71" y="57.71" width="57.71" height="57.71" fill="#2c2c2c"/><g transform="translate(57.71,57.71) scale(2.8855) rotate(0)"><rect width="2" height="20" fill="#1c1c1c"/><rect x="4" width="2" height="20" fill="#1c1c1c"/><rect x="8" width="2" height="20" fill="#1c1c1c"/><rect x="12" width="2" height="20" fill="#1c1c1c"/><rect x="16" width="2" height="20" fill="#1c1c1c"/></g><rect x="115.43" y="57.71" width="57.71" height="57.71" fill="#000000"/><g transform="translate(115.43,57.71) scale(2.8855) rotate(0)"><rect width="2" height="20" fill="#b8b8b8"/><rect x="4" width="2" height="20" fill="#b8b8b8"/><rect x="8" width="2" height="20" fill="#b8b8b8"/><rect x="12" width="2" height="20" fill="#b8b8b8"/><rect x="16" width="2" height="20" fill="#b8b8b8"/></g><rect x="173.14" y="57.71" width="57.71" height="57.71" fill="#d4d4d4"/><g transform="translate(173.14,57.71) scale(2.8855) rotate(0)"><rect width="2" height="20" fill="#000000"/><rect x="4" width="2" height="20" fill="#000000"/><rect x="8" width="2" height="20" fill="#000000"/><rect x="12" width="2" height="20" fill="#000000"/><rect x="16" width="2" height="20" fill="#000000"/></g><rect x="230.86" y="57.71" width="57.71" height="57.71" fill="#a3a3a3"/><g transform="translate(230.86,57.71) scale(2.8855) rotate(0)"><rect width="2" height="20" fill="#000000"/><rect x="4" width="2" height="20" fill="#000000"/><rect x="8" width="2" height="20" fill="#000000"/><rect x="12" width="2" height="20" fill="#000000"/><rect x="16" width="2" height="20" fill="#000000"/></g><rect x="288.57" y="57.71" width="57.71" height="57.71" fill="#181818"/><g transform="translate(288.57,57.71) scale(2.8855) rotate(0)"><rect width="2" height="20" fill="#000000"/><rect x="4" width="2" height="20" fill="#000000"/><rect x="8" width="2" height="20" fill="#000000"/><rect x="12" width="2" height="20" fill="#000000"/><rect x="16" width="2" height="20" fill="#000000"/></g><rect x="346.29" y="57.71" width="57.71" height="57.71" fill="#d5d5d5"/><g transform="translate(346.29,57.71) scale(2.8855) rotate(0)"><rect width="2" height="20" fill="#2d2d2d"/><rect x="4" width="2" height="20" fill="#2d2d2d"/><rect x="8" width="2" height="20" fill="#2d2d2d"/><rect x="12" width="2" height="20" fill="#2d2d2d"/><rect x="16" width="2" height="20" fill="#2d2d2d"/></g><rect x="404" y="57.71" width="57.71" height="57.71" fill="#000000"/><g transform="translate(404,57.71) scale(2.8855) rotate(0)"><rect width="2" height="20" fill="#373737"/><rect x="4" width="2" height="20" fill="#373737"/><rect x="8" width="2" height="20" fill="#373737"/><rect x="12" width="2" height="20" fill="#373737"/><rect x="16" width="2" height="20" fill="#373737"/></g><rect x="461.71" y="57.71" width="57.71" height="57.71" fill="#000000"/><g transform="translate(461.71,57.71) scale(2.8855) rotate(0)"><rect width="2" height="20" fill="#474747"/><rect x="4" width="2" height="20" fill="#474747"/><rect x="8" width="2" height="20" fill="#474747"/><rect x="12" width="2" height="20" fill="#474747"/><rect x="16" width="2" height="20" fill="#474747"/></g><rect x="0" y="115.43" width="57.71" height="57.71" fill="#696969"/><g transform="translate(0,115.43) scale(2.8855) rotate(0)"><rect width="2" height="20" fill="#a0a0a0"/><rect x="4" width="2" height="20" fill="#a0a0a0"/><rect x="8" width="2" height="20" fill="#a0a0a0"/><rect x="12" width="2" height="20" fill="#a0a0a0"/><rect x="16" width="2" height="20" fill="#a0a0a0"/></g><rect x="57.71" y="115.43" width="57.71" height="57.71" fill="#1c1c1c"/><g transform="translate(57.71,115.43) scale(2.8855) rotate(0)"><rect width="2" height="20" fill="#d7d7d7"/><rect x="4" width="2" height="20" fill="#d7d7d7"/><rect x="8" width="2" height="20" fill="#d7d7d7"/><rect x="12" width="2" height="20" fill="#d7d7d7"/><rect x="16" width="2" height="20" fill="#d7d7d7"/></g><rect x="115.43" y="115.43" width="57.71" height="57.71" fill="#484848"/><g transform="translate(115.43,115.43) scale(2.8855) rotate(0)"><rect width="2" height="20" fill="#000000"/><rect x="4" width="2" height="20" fill="#000000"/><rect x="8" width="2" height="20" fill="#000000"/><rect x="12" width="2" height="20" fill="#000000"/><rect x="16" width="2" height="20" fill="#000000"/></g><rect x="173.14" y="115.43" width="57.71" height="57.71" fill="#272727"/><g transform="translate(173.14,115.43) scale(2.8855) rotate(0)"><rect width="2" height="20" fill="#3b3b3b"/><rect x="4" width="2" height="20" fill="#3b3b3b"/><rect x="8" width="2" height="20" fill="#3b3b3b"/><rect x="12" width="2" height="20" fill="#3b3b3b"/><rect x="16" width="2" height="20" fill="#3b3b3b"/></g><rect x="230.86" y="115.43" width="57.71" height="57.71" fill="#f9f9f9"/><g transform="translate(230.86,115.43) scale(2.8855) rotate(0)"><rect width="2" height="20" fill="#000000"/><rect x="4" width="2" height="20" fill="#000000"/><rect x="8" width="2" height="20" fill="#000000"/><rect x="12" width="2" height="20" fill="#000000"/><rect x="16" width="2" height="20" fill="#000000"/></g><rect x="288.57" y="115.43" width="57.71" height="57.71" fill="#000000"/><g transform="translate(288.57,115.43) scale(2.8855) rotate(0)"><rect width="2" height="20" fill="#808080"/><rect x="4" width="2" height="20" fill="#808080"/><rect x="8" width="2" height="20" fill="#808080"/><rect x="12" width="2" height="20" fill="#808080"/><rect x="16" width="2" height="20" fill="#808080"/></g><rect x="346.29" y="115.43" width="57.71" height="57.71" fill="#585858"/><g transform="translate(346.29,115.43) scale(2.8855) rotate(0)"><rect width="2" height="20" fill="#000000"/><rect x="4" width="2" height="20" fill="#000000"/><rect x="8" width="2" height="20" fill="#000000"/><rect x="12" width="2" height="20" fill="#000000"/><rect x="16" width="2" height="20" fill="#000000"/></g><rect x="404" y="115.43" width="57.71" height="57.71" fill="#000000"/><g transform="translate(404,115.43) scale(2.8855) rotate(0)"><rect width="2" height="20" fill="#a6a6a6"/><rect x="4" width="2" height="20" fill="#a6a6a6"/><rect x="8" width="2" height="20" fill="#a6a6a6"/><rect x="12" width="2" height="20" fill="#a6a6a6"/><rect x="16" width="2" height="20" fill="#a6a6a6"/></g><rect x="461.71" y="115.43" width="57.71" height="57.71" fill="#000000"/><g transform="translate(461.71,115.43) scale(2.8855) rotate(0)"><rect width="2" height="20" fill="#000000"/><rect x="4" width="2" height="20" fill="#000000"/><rect x="8" width="2" height="20" fill="#000000"/><rect x="12" width="2" height="20" fill="#000000"/><rect x="16" width="2" height="20" fill="#000000"/></g><rect x="0" y="173.14" width="57.71" height="57.71" fill="#6f6f6f"/><g transform="translate(0,173.14) scale(2.8855) rotate(0)"><rect width="2" height="20" fill="#d7d7d7"/><rect x="4" width="2" height="20" fill="#d7d7d7"/><rect x="8" width="2" height="20" fill="#d7d7d7"/><rect x="12" width="2" height="20" fill="#d7d7d7"/><rect x="16" width="2" height="20" fill="#d7d7d7"/></g><rect x="57.71" y="173.14" width="57.71" height="57.71" fill="#bebebe"/><g transform="translate(57.71,173.14) scale(2.8855) rotate(0)"><rect width="2" height="20" fill="#000000"/><rect x="4" width="2" height="20" fill="#000000"/><rect x="8" width="2" height="20" fill="#000000"/><rect x="12" width="2" height="20" fill="#000000"/><rect x="16" width="2" height="20" fill="#000000"/></g><rect x="115.43" y="173.14" width="57.71" height="57.71" fill="#000000"/><g transform="translate(115.43,173.14) scale(2.8855) rotate(0)"><rect width="2" height="20" fill="#000000"/><rect x="4" width="2" height="20" fill="#000000"/><rect x="8" width="2" height="20" fill="#000000"/><rect x="12" width="2" height="20" fill="#000000"/><rect x="16" width="2" height="20" fill="#000000"/></g><rect x="173.14" y="173.14" width="57.71" height="57.71" fill="#121212"/><g transform="translate(173.14,173.14) scale(2.8855) rotate(0)"><rect width="2" height="20" fill="#000000"/><rect x="4" width="2" height="20" fill="#000000"/><rect x="8" width="2" height="20" fill="#000000"/><rect x="12" width="2" height="20" fill="#000000"/><rect x="16" width="2" height="20" fill="#000000"/></g><rect x="230.86" y="173.14" width="57.71" height="57.71" fill="#000000"/><g transform="translate(230.86,173.14) scale(2.8855) rotate(0)"><rect width="2" height="20" fill="#181818"/><rect x="4" width="2" height="20" fill="#181818"/><rect x="8" width="2" height="20" fill="#181818"/><rect x="12" width="2" height="20" fill="#181818"/><rect x="16" width="2" height="20" fill="#181818"/></g><rect x="288.57" y="173.14" width="57.71" height="57.71" fill="#000000"/><g transform="translate(288.57,173.14) scale(2.8855) rotate(0)"><rect width="2" height="20" fill="#8c8c8c"/><rect x="4" width="2" height="20" fill="#8c8c8c"/><rect x="8" width="2" height="20" fill="#8c8c8c"/><rect x="12" width="2" height="20" fill="#8c8c8c"/><rect x="16" width="2" height="20" fill="#8c8c8c"/></g><rect x="346.29" y="173.14" width="57.71" height="57.71" fill="#888888"/><g transform="translate(346.29,173.14) scale(2.8855) rotate(0)"><rect width="2" height="20" fill="#cecece"/><rect x="4" width="2" height="20" fill="#cecece"/><rect x="8" width="2" height="20" fill="#cecece"/><rect x="12" width="2" height="20" fill="#cecece"/><rect x="16" width="2" height="20" fill="#cecece"/></g><rect x="404" y="173.14" width="57.71" height="57.71" fill="#b0b0b0"/><g transform="translate(404,173.14) scale(2.8855) rotate(0)"><rect width="2" height="20" fill="#000000"/><rect x="4" width="2" height="20" fill="#000000"/><rect x="8" width="2" height="20" fill="#000000"/><rect x="12" width="2" height="20" fill="#000000"/><rect x="16" width="2" height="20" fill="#000000"/></g><rect x="461.71" y="173.14" width="57.71" height="57.71" fill="#000000"/><g transform="translate(461.71,173.14) scale(2.8855) rotate(0)"><rect width="2" height="20" fill="#191919"/><rect x="4" width="2" height="20" fill="#191919"/><rect x="8" width="2" height="20" fill="#191919"/><rect x="12" width="2" height="20" fill="#191919"/><rect x="16" width="2" height="20" fill="#191919"/></g><rect x="0" y="230.86" width="57.71" height="57.71" fill="#eaeaea"/><g transform="translate(0,230.86) scale(2.8855) rotate(0)"><rect width="2" height="20" fill="#000000"/><rect x="4" width="2" height="20" fill="#000000"/><rect x="8" width="2" height="20" fill="#000000"/><rect x="12" width="2" height="20" fill="#000000"/><rect x="16" width="2" height="20" fill="#000000"/></g><rect x="57.71" y="230.86" width="57.71" height="57.71" fill="#d7d7d7"/><g transform="translate(57.71,230.86) scale(2.8855) rotate(0)"><rect width="2" height="20" fill="#131313"/><rect x="4" width="2" height="20" fill="#131313"/><rect x="8" width="2" height="20" fill="#131313"/><rect x="12" width="2" height="20" fill="#131313"/><rect x="16" width="2" height="20" fill="#131313"/></g><rect x="115.43" y="230.86" width="57.71" height="57.71" fill="#303030"/><g transform="translate(115.43,230.86) scale(2.8855) rotate(0)"><rect width="2" height="20" fill="#535353"/><rect x="4" width="2" height="20" fill="#535353"/><rect x="8" width="2" height="20" fill="#535353"/><rect x="12" width="2" height="20" fill="#535353"/><rect x="16" width="2" height="20" fill="#535353"/></g><rect x="173.14" y="230.86" width="57.71" height="57.71" fill="#000000"/><g transform="translate(173.14,230.86) scale(2.8855) rotate(0)"><rect width="2" height="20" fill="#000000"/><rect x="4" width="2" height="20" fill="#000000"/><rect x="8" width="2" height="20" fill="#000000"/><rect x="12" width="2" height="20" fill="#000000"/><rect x="16" width="2" height="20" fill="#000000"/></g><rect x="230.86" y="230.86" width="57.71" height="57.71" fill="#b1b1b1"/><g transform="translate(230.86,230.86) scale(2.8855) rotate(0)"><rect width="2" height="20" fill="#000000"/><rect x="4" width="2" height="20" fill="#000000"/><rect x="8" width="2" height="20" fill="#000000"/><rect x="12" width="2" height="20" fill="#000000"/><rect x="16" width="2" height="20" fill="#000000"/></g><rect x="288.57" y="230.86" width="57.71" height="57.71" fill="#000000"/><g transform="translate(288.57,230.86) scale(2.8855) rotate(0)"><rect width="2" height="20" fill="#f8f8f8"/><rect x="4" width="2" height="20" fill="#f8f8f8"/><rect x="8" width="2" height="20" fill="#f8f8f8"/><rect x="12" width="2" height="20" fill="#f8f8f8"/><rect x="16" width="2" height="20" fill="#f8f8f8"/></g><rect x="346.29" y="230.86" width="57.71" height="57.71" fill="#c5c5c5"/><g transform="translate(346.29,230.86) scale(2.8855) rotate(0)"><rect width="2" height="20" fill="#7b7b7b"/><rect x="4" width="2" height="20" fill="#7b7b7b"/><rect x="8" width="2" height="20" fill="#7b7b7b"/><rect x="12" width="2" height="20" fill="#7b7b7b"/><rect x="16" width="2" height="20" fill="#7b7b7b"/></g><rect x="404" y="230.86" width="57.71" height="57.71" fill="#535353"/><g transform="translate(404,230.86) scale(2.8855) rotate(0)"><rect width="2" height="20" fill="#686868"/><rect x="4" width="2" height="20" fill="#686868"/><rect x="8" width="2" height="20" fill="#686868"/><rect x="12" width="2" height="20" fill="#686868"/><rect x="16" width="2" height="20" fill="#686868"/></g><rect x="461.71" y="230.86" width="57.71" height="57.71" fill="#000000"/><g transform="translate(461.71,230.86) scale(2.8855) rotate(0)"><rect width="2" height="20" fill="#000000"/><rect x="4" width="2" height="20" fill="#000000"/><rect x="8" width="2" height="20" fill="#000000"/><rect x="12" width="2" height="20" fill="#000000"/><rect x="16" width="2" height="20" fill="#000000"/></g><rect x="0" y="288.57" width="57.71" height="57.71" fill="#000000"/><g transform="translate(0,288.57) scale(2.8855) rotate(0)"><rect width="2" height="20" fill="#000000"/><rect x="4" width="2" height="20" fill="#000000"/><rect x="8" width="2" height="20" fill="#000000"/><rect x="12" width="2" height="20" fill="#000000"/><rect x="16" width="2" height="20" fill="#000000"/></g><rect x="57.71" y="288.57" width="57.71" height="57.71" fill="#000000"/><g transform="translate(57.71,288.57) scale(2.8855) rotate(0)"><rect width="2" height="20" fill="#000000"/><rect x="4" width="2" height="20" fill="#000000"/><rect x="8" width="2" height="20" fill="#000000"/><rect x="12" width="2" height="20" fill="#000000"/><rect x="16" width="2" height="20" fill="#000000"/></g><rect x="115.43" y="288.57" width="57.71" height="57.71" fill="#000000"/><g transform="translate(115.43,288.57) scale(2.8855) rotate(0)"><rect width="2" height="20" fill="#242424"/><rect x="4" width="2" height="20" fill="#242424"/><rect x="8" width="2" height="20" fill="#242424"/><rect x="12" width="2" height="20" fill="#242424"/><rect x="16" width="2" height="20" fill="#242424"/></g><rect x="173.14" y="288.57" width="57.71" height="57.71" fill="#000000"/><g transform="translate(173.14,288.57) scale(2.8855) rotate(0)"><rect width="2" height="20" fill="#969696"/><rect x="4" width="2" height="20" fill="#969696"/><rect x="8" width="2" height="20" fill="#969696"/><rect x="12" width="2" height="20" fill="#969696"/><rect x="16" width="2" height="20" fill="#969696"/></g><rect x="230.86" y="288.57" width="57.71" height="57.71" fill="#737373"/><g transform="translate(230.86,288.57) scale(2.8855) rotate(0)"><rect width="2" height="20" fill="#000000"/><rect x="4" width="2" height="20" fill="#000000"/><rect x="8" width="2" height="20" fill="#000000"/><rect x="12" width="2" height="20" fill="#000000"/><rect x="16" width="2" height="20" fill="#000000"/></g><rect x="288.57" y="288.57" width="57.71" height="57.71" fill="#b9b9b9"/><g transform="translate(288.57,288.57) scale(2.8855) rotate(0)"><rect width="2" height="20" fill="#1a1a1a"/><rect x="4" width="2" height="20" fill="#1a1a1a"/><rect x="8" width="2" height="20" fill="#1a1a1a"/><rect x="12" width="2" height="20" fill="#1a1a1a"/><rect x="16" width="2" height="20" fill="#1a1a1a"/></g><rect x="346.29" y="288.57" width="57.71" height="57.71" fill="#000000"/><g transform="translate(346.29,288.57) scale(2.8855) rotate(0)"><rect width="2" height="20" fill="#373737"/><rect x="4" width="2" height="20" fill="#373737"/><rect x="8" width="2" height="20" fill="#373737"/><rect x="12" width="2" height="20" fill="#373737"/><rect x="16" width="2" height="20" fill="#373737"/></g><rect x="404" y="288.57" width="57.71" height="57.71" fill="#000000"/><g transform="translate(404,288.57) scale(2.8855) rotate(0)"><rect width="2" height="20" fill="#000000"/><rect x="4" width="2" height="20" fill="#000000"/><rect x="8" width="2" height="20" fill="#000000"/><rect x="12" width="2" height="20" fill="#000000"/><rect x="16" width="2" height="20" fill="#000000"/></g><rect x="461.71" y="288.57" width="57.71" height="57.71" fill="#000000"/><g transform="translate(461.71,288.57) scale(2.8855) rotate(0)"><rect width="2" height="20" fill="#000000"/><rect x="4" width="2" height="20" fill="#000000"/><rect x="8" width="2" height="20" fill="#000000"/><rect x="12" width="2" height="20" fill="#000000"/><rect x="16" width="2" height="20" fill="#000000"/></g><rect x="0" y="346.29" width="57.71" height="57.71" fill="#000000"/><g transform="translate(0,346.29) scale(2.8855) rotate(0)"><rect width="2" height="20" fill="#828282"/><rect x="4" width="2" height="20" fill="#828282"/><rect x="8" width="2" height="20" fill="#828282"/><rect x="12" width="2" height="20" fill="#828282"/><rect x="16" width="2" height="20" fill="#828282"/></g><rect x="57.71" y="346.29" width="57.71" height="57.71" fill="#545454"/><g transform="translate(57.71,346.29) scale(2.8855) rotate(0)"><rect width="2" height="20" fill="#fafafa"/><rect x="4" width="2" height="20" fill="#fafafa"/><rect x="8" width="2" height="20" fill="#fafafa"/><rect x="12" width="2" height="20" fill="#fafafa"/><rect x="16" width="2" height="20" fill="#fafafa"/></g><rect x="115.43" y="346.29" width="57.71" height="57.71" fill="#8c8c8c"/><g transform="translate(115.43,346.29) scale(2.8855) rotate(0)"><rect width="2" height="20" fill="#000000"/><rect x="4" width="2" height="20" fill="#000000"/><rect x="8" width="2" height="20" fill="#000000"/><rect x="12" width="2" height="20" fill="#000000"/><rect x="16" width="2" height="20" fill="#000000"/></g><rect x="173.14" y="346.29" width="57.71" height="57.71" fill="#000000"/><g transform="translate(173.14,346.29) scale(2.8855) rotate(0)"><rect width="2" height="20" fill="#646464"/><rect x="4" width="2" height="20" fill="#646464"/><rect x="8" width="2" height="20" fill="#646464"/><rect x="12" width="2" height="20" fill="#646464"/><rect x="16" width="2" height="20" fill="#646464"/></g><rect x="230.86" y="346.29" width="57.71" height="57.71" fill="#777777"/><g transform="translate(230.86,346.29) scale(2.8855) rotate(0)"><rect width="2" height="20" fill="#cecece"/><rect x="4" width="2" height="20" fill="#cecece"/><rect x="8" width="2" height="20" fill="#cecece"/><rect x="12" width="2" height="20" fill="#cecece"/><rect x="16" width="2" height="20" fill="#cecece"/></g><rect x="288.57" y="346.29" width="57.71" height="57.71" fill="#000000"/><g transform="translate(288.57,346.29) scale(2.8855) rotate(0)"><rect width="2" height="20" fill="#000000"/><rect x="4" width="2" height="20" fill="#000000"/><rect x="8" width="2" height="20" fill="#000000"/><rect x="12" width="2" height="20" fill="#000000"/><rect x="16" width="2" height="20" fill="#000000"/></g><rect x="346.29" y="346.29" width="57.71" height="57.71" fill="#000000"/><g transform="translate(346.29,346.29) scale(2.8855) rotate(0)"><rect width="2" height="20" fill="#000000"/><rect x="4" width="2" height="20" fill="#000000"/><rect x="8" width="2" height="20" fill="#000000"/><rect x="12" width="2" height="20" fill="#000000"/><rect x="16" width="2" height="20" fill="#000000"/></g><rect x="404" y="346.29" width="57.71" height="57.71" fill="#000000"/><g transform="translate(404,346.29) scale(2.8855) rotate(0)"><rect width="2" height="20" fill="#000000"/><rect x="4" width="2" height="20" fill="#000000"/><rect x="8" width="2" height="20" fill="#000000"/><rect x="12" width="2" height="20" fill="#000000"/><rect x="16" width="2" height="20" fill="#000000"/></g><rect x="461.71" y="346.29" width="57.71" height="57.71" fill="#000000"/><g transform="translate(461.71,346.29) scale(2.8855) rotate(0)"><rect width="2" height="20" fill="#999999"/><rect x="4" width="2" height="20" fill="#999999"/><rect x="8" width="2" height="20" fill="#999999"/><rect x="12" width="2" height="20" fill="#999999"/><rect x="16" width="2" height="20" fill="#999999"/></g></g></svg>